<svg xmlns="http://www.w3.org/2000/svg" xmlns:xlink="http://www.w3.org/1999/xlink" width="2048" height="1024" viewBox="0 0 2048 1024"><defs><path id="textPath_stateLabel41" data-label-type="state" data-id="41" d="M910.8,270C913.8,270,916.9,270,920,270C923.0,270,926.1,270,929.2,270"/><path id="textPath_stateLabel40" data-label-type="state" data-id="40" d="M607.6,135.6C609.6,136.2,611.7,136.9,615,138C618.2,139.0,622.6,140.4,627.1,141.9"/><path id="textPath_stateLabel39" data-label-type="state" data-id="39" d="M446.3,266C448.4,266,450.6,266,454,266C457.4,266,462.0,266,466.7,266"/><path id="textPath_stateLabel35" data-label-type="state" data-id="35" d="M902,452C921.5,452,941.1,452,957,452C972.8,452,984.9,452,997,452"/><path id="textPath_stateLabel34" data-label-type="state" data-id="34" d="M889,366C906.5,366,924,366,944,366C964,366,986.5,366,1009,366"/><path id="textPath_stateLabel29" data-label-type="state" data-id="29" d="M1110.7,366.3C1120.6,361.7,1130.6,357.2,1164,360C1197.4,362.7,1254.2,372.6,1311.1,382.6"/><path id="textPath_stateLabel26" data-label-type="state" data-id="26" d="M1140.7,220.8C1147.4,218.6,1154.1,216.4,1174,210C1193.8,203.5,1226.7,192.8,1259.6,182.2"/><path id="textPath_stateLabel25" data-label-type="state" data-id="25" d="M1189,264C1211.0,264,1233.1,264,1254,264C1274.8,264,1294.4,264,1314,264"/><path id="textPath_stateLabel23" data-label-type="state" data-id="23" d="M1116.2,510.3C1142.7,501.6,1169.2,493.0,1197,484C1224.7,474.9,1253.6,465.5,1282.6,456.2"/><path id="textPath_stateLabel16" data-label-type="state" data-id="16" d="M1283.1,536.2C1301.3,549.4,1319.5,562.6,1360,592C1400.4,621.3,1463.1,666.9,1525.8,712.5"/><path id="textPath_stateLabel15" data-label-type="state" data-id="15" d="M1261.3,659.1C1276.2,681.3,1291.2,703.6,1300.6,720.1C1309.9,736.5,1313.7,747.2,1317.5,758"/><path id="textPath_stateLabel14" data-label-type="state" data-id="14" d="M942.8,518C953.5,518,964.2,518,975,518C985.7,518,996.4,518,1007.2,518"/><path id="textPath_stateLabel13" data-label-type="state" data-id="13" d="M1135.6,729C1148.7,725.2,1161.9,721.4,1180,722C1198.1,722.5,1221.1,727.3,1244.2,732.2"/><path id="textPath_stateLabel12" data-label-type="state" data-id="12" d="M1043.2,680.1C1065.7,672.7,1088.3,665.4,1105,660C1121.6,654.5,1132.3,651.0,1143,647.6"/><path id="textPath_stateLabel11" data-label-type="state" data-id="11" d="M961.5,719.5C977.4,703.5,993.3,687.6,1011,670C1028.6,652.3,1048.1,632.8,1067.6,613.4"/><path id="textPath_stateLabel10" data-label-type="state" data-id="10" d="M243.6,675.7C313.1,579.9,382.7,484.2,417,437C451.2,389.8,450.2,391.1,449.3,392.5"/><path id="textPath_stateLabel9" data-label-type="state" data-id="9" d="M683,415C704.2,415,725.5,415,748,415C770.5,415,794.2,415,818,415"/><path id="textPath_stateLabel8" data-label-type="state" data-id="8" d="M604.8,581.5C624.6,542.5,644.5,503.5,657,479C669.4,454.4,674.5,444.4,679.7,434.4"/><path id="textPath_stateLabel7" data-label-type="state" data-id="7" d="M541,735C559.3,735,577.6,735,596,735C614.3,735,632.6,735,651,735"/><path id="textPath_stateLabel4" data-label-type="state" data-id="4" d="M553.7,668.1C564.6,653.0,575.5,638.0,585,625C594.4,611.9,602.4,600.9,610.5,590"/><path id="textPath_stateLabel2" data-label-type="state" data-id="2" d="M377,692C386.5,692,396.1,692,422,692C447.8,692,489.9,692,532,692"/><path id="textPath_stateLabel1" data-label-type="state" data-id="1" d="M425.9,603.3C452.8,612.0,479.8,620.8,502,628C524.2,635.2,541.6,640.8,559.1,646.5"/></defs><g id="labels" font-size="100px" data-layer="labels"><g id="labels-river" data-group="river" opacity="1" fill="#3e3e4b" stroke="#3a3a3a" stroke-width="0" letter-spacing="0" font-size="3%" font-family="Georgia, 'Times New Roman', serif"/><g id="labels-route" data-group="route" opacity="1" fill="#3e3e4b" stroke="#3a3a3a" stroke-width="0" letter-spacing="0" font-size="3%" font-family="Georgia, 'Times New Roman', serif"/><g id="labels-cities" data-group="cities" opacity="1" fill="#3e3e4b" stroke="#000000" stroke-width="0" letter-spacing="0" font-size="7%" font-family="Georgia, 'Times New Roman', serif" /><g id="labels-towns" data-group="towns" opacity="1" fill="#3e3e4b" stroke="#000000" stroke-width="0" letter-spacing="0" font-size="4%" font-family="Georgia, 'Times New Roman', serif" /><g id="labels-province" data-group="province" opacity="1" fill="#3e3e4b" stroke="#3a3a3a" stroke-width="0" letter-spacing="0" font-size="10%" font-family="Georgia, 'Times New Roman', serif"/><g id="labels-added" data-group="added" opacity="1" fill="#3e3e4b" stroke="#3a3a3a" stroke-width="0" letter-spacing="0" font-size="18%" font-family="Georgia, 'Times New Roman', serif" /><g id="labels-state" data-group="state" opacity="1" fill="#3e3e4b" stroke="#3a3a3a" stroke-width="0" letter-spacing="0" font-size="22%" font-family="Georgia, 'Times New Roman', serif" ><text id="stateLabel1" data-label-type="state" data-id="1" data-label-shape="path"><textPath href="#textPath_stateLabel1" startOffset="50%" text-anchor="middle" font-size="170%">Кицунэ</textPath></text><text id="stateLabel2" data-label-type="state" data-id="2" data-label-shape="path"><textPath href="#textPath_stateLabel2" startOffset="50%" text-anchor="middle" font-size="170%">Фенрисы</textPath></text><text id="stateLabel4" data-label-type="state" data-id="4" data-label-shape="path"><textPath href="#textPath_stateLabel4" startOffset="50%" text-anchor="middle" font-size="70%">Зайцегоны</textPath></text><text id="stateLabel7" data-label-type="state" data-id="7" data-label-shape="path"><textPath href="#textPath_stateLabel7" startOffset="50%" text-anchor="middle" font-size="145%">Табакси</textPath></text><text id="stateLabel8" data-label-type="state" data-id="8" data-label-shape="path"><textPath href="#textPath_stateLabel8" startOffset="50%" text-anchor="middle" font-size="170%">Кентавры</textPath></text><text id="stateLabel9" data-label-type="state" data-id="9" data-label-shape="path"><textPath href="#textPath_stateLabel9" startOffset="50%" text-anchor="middle" font-size="170%">Леонины</textPath></text><text id="stateLabel10" data-label-type="state" data-id="10" data-label-shape="path"><textPath href="#textPath_stateLabel10" startOffset="50%" text-anchor="middle" font-size="170%">Дракониды</textPath></text><text id="stateLabel11" data-label-type="state" data-id="11" data-label-shape="path"><textPath href="#textPath_stateLabel11" startOffset="50%" text-anchor="middle" font-size="170%">Они</textPath></text><text id="stateLabel12" data-label-type="state" data-id="12" data-label-shape="path"><textPath href="#textPath_stateLabel12" startOffset="50%" text-anchor="middle" font-size="73%">Тифлинги</textPath></text><text id="stateLabel13" data-label-type="state" data-id="13" data-label-shape="path"><textPath href="#textPath_stateLabel13" startOffset="50%" text-anchor="middle" font-size="88%">Вампиры</textPath></text><text id="stateLabel14" data-label-type="state" data-id="14" data-label-shape="path"><textPath href="#textPath_stateLabel14" startOffset="50%" text-anchor="middle" font-size="70%">Акваны</textPath></text><text id="stateLabel15" data-label-type="state" data-id="15" transform="translate(34.8, 20.5)" data-label-shape="path"><textPath href="#textPath_stateLabel15" startOffset="50%" text-anchor="middle" font-size="128%">Мышинцы</textPath></text><text id="stateLabel16" data-label-type="state" data-id="16" data-label-shape="path"><textPath href="#textPath_stateLabel16" startOffset="50%" text-anchor="middle" font-size="170%">Гиффы</textPath></text><text id="stateLabel23" data-label-type="state" data-id="23" data-label-shape="path"><textPath href="#textPath_stateLabel23" startOffset="50%" text-anchor="middle" font-size="140%"><tspan x="0" dy="-0.5em">Высшие </tspan><tspan x="0" dy="1em">Эльфы</tspan></textPath></text><text id="stateLabel25" data-label-type="state" data-id="25" data-label-shape="path"><textPath href="#textPath_stateLabel25" startOffset="50%" text-anchor="middle" font-size="163%">Юанти</textPath></text><text id="stateLabel26" data-label-type="state" data-id="26" data-label-shape="path"><textPath href="#textPath_stateLabel26" startOffset="50%" text-anchor="middle" font-size="170%">Орки</textPath></text><text id="stateLabel29" data-label-type="state" data-id="29" data-label-shape="path"><textPath href="#textPath_stateLabel29" startOffset="50%" text-anchor="middle" font-size="70%"><tspan x="0" dy="-0.5em">Военная </tspan><tspan x="0" dy="1em">интервенция землян!</tspan></textPath></text><text id="stateLabel34" data-label-type="state" data-id="34" data-label-shape="path"><textPath href="#textPath_stateLabel34" startOffset="50%" text-anchor="middle" font-size="112%">Аурэны</textPath></text><text id="stateLabel35" data-label-type="state" data-id="35" data-label-shape="path"><textPath href="#textPath_stateLabel35" startOffset="50%" text-anchor="middle" font-size="106%">Фэйри</textPath></text><text id="stateLabel39" data-label-type="state" data-id="39" data-label-shape="path"><textPath href="#textPath_stateLabel39" startOffset="50%" text-anchor="middle" font-size="70%">???</textPath></text><text id="stateLabel40" data-label-type="state" data-id="40" data-label-shape="path"><textPath href="#textPath_stateLabel40" startOffset="50%" text-anchor="middle" font-size="70%">???</textPath></text><text id="stateLabel41" data-label-type="state" data-id="41" data-label-shape="path"><textPath href="#textPath_stateLabel41" startOffset="50%" text-anchor="middle" font-size="70%">???</textPath></text></g></g></svg>